HIERARCHY
ROOT pelvis
{
  OFFSET 0 100 0
  CHANNELS 6 Xposition Yposition Zposition Zrotation Xrotation Yrotation
  JOINT pelvis_right_femur
  {
    OFFSET -10.78128 -3.44521 -0.5502486
    CHANNELS 3 Zrotation Xrotation Yrotation
    JOINT right_femur_tibia
    {
      OFFSET -0.8047443 -44.0398 -0.1307829
      CHANNELS 3 Zrotation Xrotation Yrotation
      JOINT right_tibia_foot
      {
        OFFSET 3.006224 -47.83518 -5
        CHANNELS 3 Zrotation Xrotation Yrotation
        End Site
        {
          OFFSET 0 -5 15
        }
      }
    }
  }
  JOINT pelvis_left_femur
  {
    OFFSET 10.78128 -3.44521 -0.5502486
    CHANNELS 3 Zrotation Xrotation Yrotation
    JOINT left_femur_tibia
    {
      OFFSET 0.8047443 -44.0398 -0.1307829
      CHANNELS 3 Zrotation Xrotation Yrotation
      JOINT left_tibia_foot
      {
        OFFSET -4.370144 -48.10324 -4.275266
        CHANNELS 3 Zrotation Xrotation Yrotation
        End Site
        {
          OFFSET 0 -5 15
        }
      }
    }
  }
  JOINT pelvis_spine1
  {
    OFFSET 0 6.468898 -3.129235
    CHANNELS 3 Zrotation Xrotation Yrotation
    JOINT spine1
    {
      OFFSET 0 23.15396 4.99043
      CHANNELS 3 Zrotation Xrotation Yrotation
      JOINT spine2
      {
        OFFSET 0 20.79997 -5.064912
        CHANNELS 3 Zrotation Xrotation Yrotation
        JOINT neck
        {
          OFFSET 0 14.38658 9.616178
          CHANNELS 3 Zrotation Xrotation Yrotation
          End Site
          {
            OFFSET 0 20 0
          }
        }
      }
      JOINT right_manubrium
      {
        OFFSET -5.722621 16.35077 3.967754
        CHANNELS 3 Zrotation Xrotation Yrotation
        JOINT right_clavicle
        {
          OFFSET -13.16364 1.694482 -4.693211
          CHANNELS 3 Zrotation Xrotation Yrotation
          JOINT right_humerus
          {
            OFFSET -28.5034 -0.3100689 -2.792744
            CHANNELS 3 Zrotation Xrotation Yrotation
            JOINT right_radius
            {
              OFFSET -25.15693 0.02248979 -1.271978
              CHANNELS 3 Zrotation Xrotation Yrotation
              End Site
              {
                OFFSET -15 0 0
              }
            }
          }
        }
      }
      JOINT left_manubrium
      {
        OFFSET 5.722621 16.35077 3.967754
        CHANNELS 3 Zrotation Xrotation Yrotation
        JOINT left_clavicle
        {
          OFFSET 13.16364 1.694482 -4.693211
          CHANNELS 3 Zrotation Xrotation Yrotation
          JOINT left_humerus
          {
            OFFSET 29.39168 -1.063119 -2.237045
            CHANNELS 3 Zrotation Xrotation Yrotation
            JOINT left_radius
            {
              OFFSET 24.59957 -0.9528479 0.9047498
              CHANNELS 3 Zrotation Xrotation Yrotation
              End Site
              {
                OFFSET 15 -0 -0
              }
            }
          }
        }
      }
    }
  }
}
MOTION
Frames: 19
Frame Time: 0.0416666666667
1174.737 99.87982 2788.038 5.596009 -3.156533 40.60871 -0.1447711 17.53014 4.321871 -0 37.4936 -0 0.1625764 -1.344516 -1.377328 -3.679934 -19.75237 -6.474809 -0 21.06376 -0 -3.160833 -8.919196 19.52921 -3.438937 -1.061782 8.274177 -1.13703 10.16573 -3.413165 1.898768 21.88171 5.474986 2.734441 -19.34327 6.856021 0.8297902 -21.58722 10.48947 83.04045 25.64151 -7.717086 -0 0 21.54235 -25.22137 10.3248 14.15097 3.978748 -15.62212 -2.553599 -93.87352 23.5602 27.06182 0 0 -8.224379 -0.8272555 5.957772 15.06575
1180.175 101.066 2792.506 5.83356 -2.860907 41.28747 -0.6445563 14.31068 4.282363 -0 46.14842 -0 0.01789235 3.926804 -1.656819 -5.057515 -16.30505 -7.179965 -0 21.87997 -0 -2.522241 -9.485738 18.70173 -3.968527 -1.241756 7.942198 -1.089942 10.86188 -3.990745 1.521579 21.63964 5.949684 3.186008 -19.50957 6.680871 2.028796 -21.19869 10.87955 83.75493 27.16771 -9.229963 -0 0 20.59095 -25.00725 10.67917 13.83799 3.780412 -16.27544 -3.043543 -93.50017 23.24197 27.08328 0 0 -8.332585 -0.4371526 5.633342 14.8852
1185.476 102.5487 2796.737 6.037669 -2.905848 42.31516 -0.7502976 10.24232 4.177066 -0 52.4753 -0 -0.1634179 7.438212 -2.375967 -5.881027 -12.3811 -7.547129 -0 21.49867 -0 -2.155699 -10.3886 18.00376 -4.154203 -1.181162 7.306586 -0.8888999 11.37694 -4.683394 1.182693 21.53579 6.275735 3.332762 -19.64164 6.56942 2.669402 -20.85261 11.15664 84.90999 27.62032 -10.9158 -0 0 19.47142 -24.55044 10.67131 13.61927 3.704065 -16.94819 -3.452149 -92.8448 23.13571 26.3145 0 0 -8.907361 -0.2561112 5.180637 14.92061
1190.593 104.0784 2800.728 6.160259 -3.170495 43.55663 -0.5601207 5.58168 3.963385 -0 55.6114 -0 -0.599936 9.256402 -3.279596 -6.21283 -8.149346 -7.63241 -0 20.2503 -0 -1.964715 -11.5572 17.42347 -4.079445 -0.9739756 6.453821 -0.5281016 11.71088 -5.495606 0.9040278 21.55282 6.425367 3.255385 -19.80559 6.464317 2.746006 -20.54609 11.30096 86.37704 27.18339 -12.73834 -0 0 18.11302 -23.83853 10.24008 13.39411 3.759983 -17.7594 -3.786745 -91.84795 23.23284 24.70503 0 0 -10.07276 -0.1203539 4.744403 14.90189
1195.49 105.4173 2804.519 6.255112 -3.629997 44.87353 -0.1507353 0.4338844 3.677589 -0 55.48836 -0 -1.344113 9.544452 -4.292 -6.179161 -3.575628 -7.552148 -0 18.55658 -0 -2.000614 -13.01303 16.9348 -3.779755 -0.6701726 5.461103 -0.06029208 11.84839 -6.378397 0.7284505 21.68888 6.383217 3.013896 -19.97595 6.35397 2.256296 -20.24703 11.28224 88.09529 25.8319 -14.68259 -0 0 16.55914 -22.81426 9.372188 12.98318 3.960051 -18.73599 -4.097698 -90.54937 23.59122 22.29488 0 0 -11.86502 -0.03056546 4.431355 14.7978
1200.135 106.372 2808.176 6.29227 -4.207259 46.12386 0.4320047 -5.262374 3.396327 -0 52.25904 -0 -2.355256 8.423564 -5.37932 -5.894327 1.385471 -7.473126 -0 16.76694 -0 -2.362502 -14.77944 16.46021 -3.269447 -0.3184044 4.411606 0.4499495 11.75746 -7.279333 0.6882755 21.9029 6.189018 2.689078 -20.11557 6.271595 1.320895 -19.88719 11.08617 89.91346 23.77052 -16.72752 -0 0 14.92302 -21.44643 8.212735 12.2339 4.322626 -19.87172 -4.403634 -89.03036 24.28299 19.21519 0 0 -14.31373 -0.02256613 4.373433 14.66933
1204.506 106.7986 2811.777 6.089063 -4.693176 47.16762 1.155463 -11.68659 3.215798 -0 46.02216 -0 -3.518915 6.039727 -6.459259 -5.451924 6.648641 -7.617019 -0 15.10861 -0 -3.128849 -16.86391 15.88133 -2.588958 0.01557087 3.423658 0.9369256 11.39969 -8.150793 0.795454 22.08704 5.953172 2.421132 -20.1991 6.280254 0.2499261 -19.3612 10.73345 91.54422 21.66464 -18.88489 -0 0 13.38746 -19.77863 7.114653 11.05383 4.887795 -21.14875 -4.668477 -87.40313 25.3779 15.71533 0 0 -17.48239 -0.1207317 4.739722 14.61329
1208.597 106.5903 2815.386 5.357466 -4.707633 47.89568 1.93077 -18.92181 3.196739 -0 36.76948 -0 -4.598884 2.727684 -7.329663 -4.951698 11.82636 -8.263863 -0 13.60174 -0 -4.323555 -19.28068 15.0884 -1.863423 0.2537132 2.693942 1.30173 10.73958 -8.903638 1.052262 22.07318 5.848773 2.435106 -20.18296 6.452385 -0.4504288 -18.54686 10.27811 92.56734 20.68894 -21.19083 -0 0 12.25413 -17.99151 6.646558 9.432197 5.734448 -22.50367 -4.813219 -85.84686 26.95599 12.23229 0 0 -21.42599 -0.3681042 5.723329 14.79463
1212.433 105.6464 2819.016 3.9602 -3.749663 48.30892 2.396007 -26.43646 3.141348 -0 24.78435 -0 -5.162775 -0.6442415 -7.599643 -4.578592 15.98255 -9.661634 -0 11.8328 -0 -5.889529 -22.09085 14.05301 -1.373531 0.3535457 2.524975 1.343548 9.791066 -9.313465 1.463141 21.71359 6.068861 3.02117 -19.93319 6.817255 -0.1887764 -17.39059 9.797774 92.55993 22.26112 -23.52635 -0 0 11.95885 -16.56462 7.488215 7.564108 6.957272 -23.76012 -4.800399 -84.6624 29.09065 9.472784 0 0 -26.00339 -0.9165907 7.460638 15.54613
1216.078 103.8386 2822.576 2.391324 -1.612022 48.59186 1.6365 -32.54237 2.208691 -0 11.72966 -0 -4.725761 -2.497755 -6.860287 -4.65924 17.72 -11.62113 -0 8.80054 -0 -7.649586 -25.32394 12.83179 -1.504134 0.4140922 3.164105 0.7970841 8.747397 -9.053114 1.980375 21.08246 6.685688 4.312043 -19.23116 7.229221 1.268144 -16.1113 9.415741 91.4958 26.83044 -25.30956 -0 0 12.75917 -16.42946 9.911912 6.147231 8.498711 -24.65432 -4.816356 -84.14053 31.57617 8.159642 0 0 -30.57512 -2.010622 9.708614 17.26915
1219.679 101.1601 2825.945 1.615169 0.8180404 48.98149 -0.7169337 -35.27564 -0.1357872 -0 1.668669 -0 -3.500297 -1.88116 -5.510883 -5.25863 16.74791 -13.03447 -0 4.523955 -0 -9.192745 -28.21334 11.44167 -2.244619 0.6037949 4.255567 -0.1547302 8.043512 -8.261124 2.347189 20.52298 7.384972 5.760182 -18.24396 7.309531 3.12764 -15.27287 9.327116 90.06794 31.93771 -25.81297 -0 0 13.95307 -18.03408 12.69908 6.152283 9.840345 -25.04199 -5.115912 -84.02288 33.25147 8.089168 0 0 -33.8435 -3.25797 11.30465 19.33572
1223.536 98.18904 2829.315 1.624816 1.793802 49.55472 -2.031061 -34.68014 -1.477174 0 -0.7471344 0 -2.702645 -0.76654 -5.06704 -5.561244 15.78584 -12.7849 -0 3.689021 -0 -9.846212 -28.25887 10.17887 -2.712308 0.6998781 4.634137 -0.4452301 7.900828 -7.914885 2.2978 20.2748 7.456916 6.107725 -17.88218 6.99028 3.97323 -15.01879 9.478117 89.42481 33.57935 -25.41807 -0 0 13.83552 -19.12919 13.50445 7.023918 10.09515 -24.75675 -5.194069 -83.55037 32.52503 7.870543 0 0 -34.17575 -2.970143 10.96736 19.23607
1227.899 95.88952 2833.185 2.014393 0.6464073 50.15097 -0.3287569 -31.54561 0.1756274 -0 4.200266 -0 -2.874406 -1.749299 -6.203407 -5.08859 16.96191 -11.38074 -0 11.49472 -0 -9.469924 -24.06076 9.912602 -2.349004 0.4077948 3.796269 0.3832161 7.96568 -8.253119 2.111834 20.57576 6.634817 4.880352 -18.23992 6.810682 3.4377 -14.59938 9.460788 90.1007 31.28398 -24.90762 -0 0 11.5885 -17.66266 12.22857 7.201515 8.985809 -23.57566 -4.51971 -82.77357 29.84472 6.647751 0 0 -31.1887 -0.7315357 9.418124 16.08584
1232.703 94.73441 2837.697 3.07281 -1.485823 50.51924 2.186477 -26.30823 2.665745 -0 10.86966 -0 -2.972554 -3.91622 -7.838439 -4.425631 18.15429 -9.953676 -0 24.53497 -0 -8.810915 -18.23411 10.90662 -1.741575 0.0305693 2.753646 1.343776 8.122863 -8.397845 2.129887 21.39668 5.647243 3.220011 -18.33497 7.021439 2.497228 -13.80545 9.383249 91.22544 28.08748 -24.19855 -0 0 8.642723 -15.99672 11.26331 6.944236 7.410471 -22.08371 -3.783744 -82.35839 26.94372 5.160209 0 0 -27.05152 1.629277 8.264411 12.28392
1237.737 94.63892 2842.587 4.434997 -3.367948 50.5813 3.823556 -20.87256 4.268653 -0 15.43873 -0 -2.162988 -5.289272 -8.863711 -3.916227 17.69332 -8.916138 -0 36.3515 -0 -8.501126 -13.58241 12.46959 -1.273836 -0.1719039 2.322472 1.74349 8.532211 -8.051299 2.290301 22.18006 5.197527 2.178694 -17.91603 7.483793 1.996611 -13.1234 9.548515 91.90903 26.12615 -23.42123 -0 0 6.702837 -16.19948 12.02522 6.917971 6.267868 -21.06055 -3.56536 -82.51953 24.68637 4.495044 0 0 -24.04263 2.942279 8.031112 9.804354
1242.82 95.29803 2847.585 5.552405 -4.651736 50.35849 4.663515 -16.54179 5.090193 -0 17.86781 -0 -0.8974885 -5.72112 -9.112164 -3.538044 15.92572 -8.280776 -0 44.72461 -0 -8.684003 -10.65495 13.85471 -0.8941655 -0.1874345 2.475451 1.647001 9.067373 -7.450445 2.462994 22.64828 5.241177 1.837472 -17.30178 7.950191 1.987234 -12.80027 9.870676 91.94817 25.38812 -22.71633 -0 0 6.149399 -17.646 13.74614 7.148111 5.66265 -20.54607 -3.724895 -83.0825 23.32816 4.864274 0 0 -22.43043 3.235684 8.350073 8.91387
1247.839 96.42303 2852.548 6.263166 -5.399813 49.88748 5.073252 -13.12366 5.576114 -0 18.97101 -0 0.008561403 -5.91865 -8.854106 -3.235048 13.25685 -7.903369 -0 50.51846 -0 -9.114187 -8.85021 14.8029 -0.5771133 -0.06480932 2.979485 1.351325 9.564349 -6.851671 2.582366 22.85309 5.39208 1.909088 -16.80577 8.143811 2.228374 -12.87938 10.20073 91.4904 25.25644 -22.04028 -0 0 6.596366 -19.03518 15.06322 7.447504 5.336398 -20.24145 -3.931556 -83.91187 22.83323 6.064135 0 0 -21.48834 2.886379 8.621737 9.167619
1252.725 97.79248 2857.412 6.666502 -5.774356 49.21568 5.248409 -10.06354 5.950916 -0 19.25659 -0 0.2369186 -6.395357 -8.343943 -2.972595 9.873566 -7.626319 -0 54.74383 -0 -9.501771 -7.646498 15.42579 -0.3664208 0.1665762 3.648423 1.050182 9.941103 -6.346227 2.64732 22.941 5.406473 2.125891 -16.54807 8.012115 2.49006 -13.28357 10.46781 90.73827 25.30605 -21.26413 -0 0 7.574878 -19.74175 15.39802 7.668727 5.101021 -19.92884 -3.999696 -84.91222 22.96899 7.737792 0 0 -20.64011 2.278164 8.58222 9.969592
1257.436 99.22714 2862.151 6.957413 -5.968246 48.41121 5.249291 -6.951048 6.254856 -0 19.19584 -0 -0.05083751 -7.389634 -7.749393 -2.723929 5.928139 -7.369158 -0 57.63263 -0 -9.741044 -6.879043 15.93926 -0.2935865 0.5120912 4.346983 0.7757801 10.12312 -5.857054 2.700042 23.06537 5.251877 2.299635 -16.46428 7.72884 2.599285 -13.85917 10.62625 89.8102 25.27247 -20.17598 -0 0 8.809128 -19.8019 14.89861 7.774394 4.897636 -19.46759 -3.893673 -86.00808 23.48417 9.522309 0 0 -19.55641 1.678979 8.341678 10.81514
